<?xml version="1.0" encoding="ISO-8859-1" standalone="no"?>
<!DOCTYPE svg PUBLIC "-//W3C//DTD SVG 1.1//EN" "http://www.w3.org/Graphics/SVG/1.1/DTD/svg11.dtd">
<svg version="1.1" baseProfile="full" id="body" width="8in" height="8in" viewBox="0 0 1 1" preserveAspectRatio="none" xmlns="http://www.w3.org/2000/svg" xmlns:xlink="http://www.w3.org/1999/xlink" xmlns:ev="http://www.w3.org/2001/xml-events">
<title>SVG drawing</title>
<desc>This was produced by version 4.4 of GNU libplot, a free library for exporting 2-D vector graphics.</desc>
<rect id="background" x="0" y="0" width="1" height="1" stroke="none" fill="white"/>
<g id="content" transform="translate(0.034375,0.70937) scale(1,-1) scale(0.125) " xml:space="preserve" stroke="black" stroke-linecap="butt" stroke-linejoin="miter" stroke-miterlimit="10.433" stroke-dasharray="none" stroke-dashoffset="0" stroke-opacity="1" fill="none" fill-rule="evenodd" fill-opacity="1" font-style="normal" font-variant="normal" font-weight="normal" font-stretch="normal" font-size-adjust="none" letter-spacing="normal" word-spacing="normal" text-anchor="start">
<ellipse transform="translate(0.5,0.50449) " rx="0.5" ry="0.125" stroke-width="0.0094118" />
<line x1="1" y1="0.50449" x2="1" y2="-0.49551" stroke-width="0.0094118" />
<path d="M0,0.50449 V-0.49551 C0.3094,-0.67415,0.6906,-0.67415,1,-0.49551 " stroke-width="0.0094118" />
<text transform="translate(0.17972,-0.16954) scale(1,-1) scale(0.0069444) " font-family="Helvetica,sans-serif" font-size="20px" stroke="none" fill="black" >Markdown</text>
<circle cx="1.5" cy="1.6295" r="0.5" stroke-width="0.0094118" />
<text transform="translate(1.3379,1.7471) scale(1,-1) scale(0.0069444) " font-family="Helvetica,sans-serif" font-size="20px" stroke="none" fill="black" >static</text>
<text transform="translate(1.2722,1.5805) scale(1,-1) scale(0.0069444) " font-family="Helvetica,sans-serif" font-size="20px" stroke="none" fill="black" >content</text>
<text transform="translate(1.2028,1.4138) scale(1,-1) scale(0.0069444) " font-family="Helvetica,sans-serif" font-size="20px" stroke="none" fill="black" >generator</text>
<circle cx="5.5" cy="2.6295" r="0.5" stroke-width="0.0094118" />
<text transform="translate(5.3379,2.7471) scale(1,-1) scale(0.0069444) " font-family="Helvetica,sans-serif" font-size="20px" stroke="none" fill="black" >static</text>
<text transform="translate(5.2722,2.5805) scale(1,-1) scale(0.0069444) " font-family="Helvetica,sans-serif" font-size="20px" stroke="none" fill="black" >content</text>
<text transform="translate(5.2028,2.4138) scale(1,-1) scale(0.0069444) " font-family="Helvetica,sans-serif" font-size="20px" stroke="none" fill="black" >generator</text>
<circle cx="3" cy="0" r="0.5" stroke-width="0.0094118" />
<text transform="translate(2.8765,0.034306) scale(1,-1) scale(0.0069444) " font-family="Helvetica,sans-serif" font-size="20px" stroke="none" fill="black" >Pod</text>
<text transform="translate(2.7028,-0.13236) scale(1,-1) scale(0.0069444) " font-family="Helvetica,sans-serif" font-size="20px" stroke="none" fill="black" >generator</text>
<line x1="0.5" y1="0.62949" x2="0.5" y2="1.6295" stroke-width="0.0094118" />
<line x1="0.5" y1="0.62949" x2="0.5" y2="2.6295" stroke-width="0.0094118" />
<line x1="0.5" y1="1.6295" x2="1" y2="1.6295" stroke-width="0.0094118" />
<polygon points="0.9,1.6545 1,1.6295 0.9,1.6045 " stroke-width="0.0094118" fill="black" />
<line x1="0.5" y1="2.6295" x2="5" y2="2.6295" stroke-width="0.0094118" />
<polygon points="4.9,2.6545 5,2.6295 4.9,2.6045 " stroke-width="0.0094118" fill="black" />
<line x1="2" y1="1.6295" x2="6" y2="1.6295" stroke-width="0.0094118" />
<line x1="3" y1="1.6295" x2="3" y2="0.5" stroke-width="0.0094118" />
<polygon points="3.025,0.6 3,0.5 2.975,0.6 " stroke-width="0.0094118" fill="black" />
<line x1="3.5" y1="0" x2="6.5" y2="0" stroke-width="0.0094118" />
<line x1="6" y1="1.6295" x2="7.5" y2="1.6295" stroke-width="0.0094118" />
<polygon points="7.4,1.6545 7.5,1.6295 7.4,1.6045 " stroke-width="0.0094118" fill="black" />
<text transform="translate(6.5454,1.6638) scale(1,-1) scale(0.0069444) " font-family="Helvetica,sans-serif" font-size="20px" stroke="none" fill="black" >Github</text>
<text transform="translate(6.7307,1.4971) scale(1,-1) scale(0.0069444) " font-family="Helvetica,sans-serif" font-size="20px" stroke="none" fill="black" > </text>
<line x1="6" y1="2.6295" x2="7.5" y2="2.6295" stroke-width="0.0094118" />
<polygon points="7.4,2.6545 7.5,2.6295 7.4,2.6045 " stroke-width="0.0094118" fill="black" />
<text transform="translate(6.5686,2.6638) scale(1,-1) scale(0.0069444) " font-family="Helvetica,sans-serif" font-size="20px" stroke="none" fill="black" >Gitlab</text>
<text transform="translate(6.7307,2.4971) scale(1,-1) scale(0.0069444) " font-family="Helvetica,sans-serif" font-size="20px" stroke="none" fill="black" > </text>
<line x1="6.5" y1="0" x2="7.5" y2="0" stroke-width="0.0094118" />
<polygon points="7.4,0.025 7.5,0 7.4,-0.025 " stroke-width="0.0094118" fill="black" />
<text transform="translate(6.6449,0.034306) scale(1,-1) scale(0.0069444) " font-family="Helvetica,sans-serif" font-size="20px" stroke="none" fill="black" >Kubernetes</text>
<text transform="translate(6.9807,-0.13236) scale(1,-1) scale(0.0069444) " font-family="Helvetica,sans-serif" font-size="20px" stroke="none" fill="black" > </text>
<polygon points="4.4,-1 7.6,-1 7.6,4 4.4,4 " stroke-width="0.0094118" stroke-dasharray="0.0125, 0.0375" />
<polygon points="-0.15,-1 3.55,-1 3.55,4 -0.15,4 " stroke-width="0.0094118" stroke-dasharray="0.0125, 0.0375" />
<text transform="translate(5.591,4.051) scale(1,-1) scale(0.0069444) " font-family="Helvetica,sans-serif" font-size="20px" stroke="none" fill="black" >OPERATION</text>
<text transform="translate(1.1752,4.051) scale(1,-1) scale(0.0069444) " font-family="Helvetica,sans-serif" font-size="20px" stroke="none" fill="black" >DEVELOPMENT</text>
</g>
</svg>
